<svg width="56" height="9" viewBox="0 0 56 9" fill="none" xmlns="http://www.w3.org/2000/svg">
<path d="M6.63281 8.10547C6.09766 8.10547 5.67773 8.01758 5.37305 7.8418C5.04492 7.6582 4.86719 7.39844 4.83984 7.0625L4.78711 6.51172C5.14648 6.42578 5.44922 6.20312 5.69531 5.84375C5.76172 5.74219 5.79492 5.6543 5.79492 5.58008C5.79492 5.47852 5.74414 5.42773 5.64258 5.42773H5.625C5.62109 5.43164 5.61328 5.43359 5.60156 5.43359C5.32812 6.00781 4.88477 6.29492 4.27148 6.29492C3.95898 6.29492 3.69141 6.22656 3.46875 6.08984C3.25 5.95312 3.04883 5.7168 2.86523 5.38086H2.83008C2.72461 5.38086 2.67188 5.42578 2.67188 5.51562C2.67188 5.57812 2.69531 5.64844 2.74219 5.72656C2.89844 5.98828 3.09375 6.19336 3.32812 6.3418C3.51172 6.4668 3.70508 6.54102 3.9082 6.56445L3.86133 7.67188C3.62695 7.82422 3.37891 7.93359 3.11719 8C2.85938 8.07031 2.49023 8.10547 2.00977 8.10547C1.5332 8.10547 1.10742 8.01172 0.732422 7.82422C0.271484 7.59375 0.0410156 7.27344 0.0410156 6.86328C0.0410156 6.35156 0.142578 5.08789 0.345703 3.07227C0.455078 2.02148 0.542969 1.28711 0.609375 0.869141C1.01172 0.509766 1.60547 0.330078 2.39062 0.330078C2.96094 0.330078 3.43359 0.435547 3.80859 0.646484L4.13086 1.72461L3.92578 2.58594C3.91016 2.64453 3.90234 2.70117 3.90234 2.75586C3.90234 2.89258 3.98047 2.96289 4.13672 2.9668L4.69336 0.652344C4.85352 0.566406 5.0625 0.492188 5.32031 0.429688C5.57812 0.363281 5.85938 0.330078 6.16406 0.330078C6.73438 0.330078 7.15625 0.427734 7.42969 0.623047C7.70703 0.814453 7.87109 1.13867 7.92188 1.5957C7.93359 1.68164 7.95117 1.82422 7.97461 2.02344C8.33008 5.07812 8.50781 6.87695 8.50781 7.41992C8.07422 7.87695 7.44922 8.10547 6.63281 8.10547ZM12.2227 1.50195V7.55469C12.043 7.71094 11.8027 7.8418 11.502 7.94727C11.2012 8.05273 10.8359 8.10547 10.4062 8.10547C9.97656 8.10547 9.61133 8.00977 9.31055 7.81836C8.9707 7.61133 8.80078 7.31836 8.80078 6.93945V0.886719C8.98047 0.730469 9.2207 0.599609 9.52148 0.494141C9.82227 0.388672 10.1855 0.335938 10.6113 0.335938C11.0371 0.335938 11.4062 0.429688 11.7188 0.617188C12.0547 0.832031 12.2227 1.12695 12.2227 1.50195ZM12.6562 6.91602V1.04492C12.6562 0.841797 12.8184 0.673828 13.1426 0.541016C13.4707 0.404297 13.8555 0.335938 14.2969 0.335938C14.5469 0.335938 14.7812 0.367188 15 0.429688C15.2227 0.488281 15.3926 0.564453 15.5098 0.658203C15.6699 0.861328 15.8164 1.06836 15.9492 1.2793C16.082 1.49023 16.3809 1.98242 16.8457 2.75586C16.8887 2.75586 16.9277 2.74219 16.9629 2.71484C16.998 2.6875 17.0156 2.64648 17.0156 2.5918C17.0156 2.5332 16.9668 2.42188 16.8691 2.25781L16.2363 1.16797V0.845703C16.4355 0.681641 16.6777 0.554688 16.9629 0.464844C17.248 0.375 17.543 0.330078 17.8477 0.330078C18.3438 0.330078 18.7441 0.419922 19.0488 0.599609C19.4043 0.814453 19.582 1.15039 19.582 1.60742V7.15625C19.582 7.49219 19.4219 7.73633 19.1016 7.88867C18.8281 8.02539 18.4629 8.09375 18.0059 8.09375C17.752 8.09375 17.5039 8.06641 17.2617 8.01172C17.0234 7.95703 16.8359 7.88672 16.6992 7.80078C16.4219 7.44531 16.1465 7.04688 15.873 6.60547L15.2754 5.60938C15.1621 5.625 15.1055 5.68555 15.1055 5.79102C15.1055 5.85742 15.1621 5.98438 15.2754 6.17188L16.0078 7.35547V7.66602C15.5547 7.95898 15.043 8.10547 14.4727 8.10547C13.9062 8.10547 13.4609 8.00195 13.1367 7.79492C12.8164 7.58789 12.6562 7.29492 12.6562 6.91602ZM25.4648 5.32227C25.4648 6.14648 25.2031 6.81641 24.6797 7.33203C24.125 7.88672 23.3594 8.16406 22.3828 8.16406C21.8242 8.16406 21.2949 8.01953 20.7949 7.73047C20.4121 7.51172 20.1211 7.25977 19.9219 6.97461C19.8828 6.73633 19.8633 6.51953 19.8633 6.32422C19.8633 5.6875 20.0566 5.19922 20.4434 4.85938C20.7559 4.58594 21.1406 4.44922 21.5977 4.44922C21.9453 4.44922 22.2617 4.54102 22.5469 4.72461C22.8359 4.91992 23.0488 5.18945 23.1855 5.5332C23.3105 5.5332 23.373 5.46875 23.373 5.33984C23.373 5.27344 23.3438 5.18555 23.2852 5.07617C23.2305 4.9668 23.1504 4.85742 23.0449 4.74805C22.7676 4.46289 22.4336 4.28711 22.043 4.2207V0.845703C22.2383 0.701172 22.4844 0.580078 22.7812 0.482422C23.0781 0.384766 23.416 0.335938 23.7949 0.335938C24.1738 0.335938 24.5156 0.402344 24.8203 0.535156C25.25 0.730469 25.4648 1.02344 25.4648 1.41406V5.32227ZM29.8652 3.95703C29.8652 3.56641 29.8477 3.29883 29.8125 3.1543C29.7773 3.00586 29.7129 2.93164 29.6191 2.93164C29.5605 2.93164 29.5078 2.95117 29.4609 2.99023C29.4688 3.06055 29.4805 3.1543 29.4961 3.27148C29.5117 3.38867 29.5195 3.63867 29.5195 4.02148V4.40234C29.5195 4.66797 29.5137 4.86133 29.502 4.98242C29.4902 5.10352 29.4805 5.20703 29.4727 5.29297C29.4688 5.33984 29.4648 5.38672 29.4609 5.43359C29.5078 5.47266 29.5605 5.49219 29.6191 5.49219C29.7129 5.49219 29.7773 5.41992 29.8125 5.27539C29.8477 5.12695 29.8652 4.85742 29.8652 4.4668V3.95703ZM29.6309 8.1875C28.9355 8.1875 28.2969 8.04492 27.7148 7.75977C27.1367 7.4707 26.6699 7.03125 26.3145 6.44141C25.959 5.84766 25.7812 5.10742 25.7812 4.2207C25.7812 2.93555 26.168 1.93164 26.9414 1.20898C27.6289 0.572266 28.5137 0.253906 29.5957 0.253906C30.7715 0.253906 31.7012 0.619141 32.3848 1.34961C33.0723 2.07617 33.416 3.0332 33.416 4.2207C33.416 5.54102 33.0488 6.54883 32.3145 7.24414C31.6465 7.87305 30.752 8.1875 29.6309 8.1875ZM38.8242 0.335938C39.293 0.335938 39.6992 0.462891 40.043 0.716797C40.3867 0.970703 40.5586 1.33203 40.5586 1.80078V5.05859C40.5586 6.05078 40.2559 6.81641 39.6504 7.35547C39.0449 7.89062 38.207 8.1582 37.1367 8.1582C36.0703 8.1582 35.2402 7.89453 34.6465 7.36719C34.041 6.83984 33.7383 6.07031 33.7383 5.05859V0.880859C34.1992 0.513672 34.7324 0.330078 35.3379 0.330078C35.8457 0.330078 36.248 0.464844 36.5449 0.734375C36.8418 1 36.9902 1.4043 36.9902 1.94727V5.36328C37.0332 5.39453 37.082 5.41016 37.1367 5.41016C37.1953 5.41016 37.2363 5.39648 37.2598 5.36914C37.2871 5.33789 37.3008 5.28125 37.3008 5.19922V1.94141C37.3008 1.69531 37.2891 1.5 37.2656 1.35547C37.2422 1.21094 37.1953 1.06641 37.125 0.921875C37.5938 0.53125 38.1602 0.335938 38.8242 0.335938ZM40.9922 6.91602V1.04492C40.9922 0.841797 41.1543 0.673828 41.4785 0.541016C41.8066 0.404297 42.1914 0.335938 42.6328 0.335938C42.8828 0.335938 43.1172 0.367188 43.3359 0.429688C43.5586 0.488281 43.7285 0.564453 43.8457 0.658203C44.0059 0.861328 44.1523 1.06836 44.2852 1.2793C44.418 1.49023 44.7168 1.98242 45.1816 2.75586C45.2246 2.75586 45.2637 2.74219 45.2988 2.71484C45.334 2.6875 45.3516 2.64648 45.3516 2.5918C45.3516 2.5332 45.3027 2.42188 45.2051 2.25781L44.5723 1.16797V0.845703C44.7715 0.681641 45.0137 0.554688 45.2988 0.464844C45.584 0.375 45.8789 0.330078 46.1836 0.330078C46.6797 0.330078 47.0801 0.419922 47.3848 0.599609C47.7402 0.814453 47.918 1.15039 47.918 1.60742V7.15625C47.918 7.49219 47.7578 7.73633 47.4375 7.88867C47.1641 8.02539 46.7988 8.09375 46.3418 8.09375C46.0879 8.09375 45.8398 8.06641 45.5977 8.01172C45.3594 7.95703 45.1719 7.88672 45.0352 7.80078C44.7578 7.44531 44.4824 7.04688 44.209 6.60547L43.6113 5.60938C43.498 5.625 43.4414 5.68555 43.4414 5.79102C43.4414 5.85742 43.498 5.98438 43.6113 6.17188L44.3438 7.35547V7.66602C43.8906 7.95898 43.3789 8.10547 42.8086 8.10547C42.2422 8.10547 41.7969 8.00195 41.4727 7.79492C41.1523 7.58789 40.9922 7.29492 40.9922 6.91602ZM52.1602 3.11914H55.6348C55.8574 3.44336 55.9688 3.83789 55.9688 4.30273C55.9688 4.76367 55.873 5.13867 55.6816 5.42773H55.4414V7.18555C54.6719 7.85352 53.6562 8.1875 52.3945 8.1875C51.625 8.1875 50.9414 8.05078 50.3438 7.77734C49.6914 7.48438 49.1855 7.05664 48.8262 6.49414C48.4316 5.87695 48.2344 5.11914 48.2344 4.2207C48.2344 2.94336 48.6172 1.95508 49.3828 1.25586C50.1094 0.587891 51.0938 0.253906 52.3359 0.253906C52.9492 0.253906 53.5273 0.345703 54.0703 0.529297C54.6172 0.712891 55.0488 0.941406 55.3652 1.21484C55.3652 1.44922 55.3359 1.73633 55.2773 2.07617C55.2227 2.41602 55.1523 2.67578 55.0664 2.85547H51.9785C51.8535 2.98828 51.7344 3.17969 51.6211 3.42969C51.5117 3.67969 51.457 3.9668 51.457 4.29102C51.457 4.73633 51.5684 5.08594 51.791 5.33984C51.9863 5.57031 52.2363 5.68555 52.541 5.68555C52.666 5.68555 52.7285 5.64258 52.7285 5.55664V5.42188H52.6641C52.4062 5.42188 52.1914 5.32227 52.0195 5.12305C51.8516 4.91992 51.7676 4.63086 51.7676 4.25586C51.7676 3.78711 51.8984 3.4082 52.1602 3.11914Z" fill="#644234"/>
</svg>
